<?xml version="1.0" standalone="no"?>
<!DOCTYPE svg PUBLIC "-//W3C//DTD SVG 20010904//EN"
 "http://www.w3.org/TR/2001/REC-SVG-20010904/DTD/svg10.dtd">
<svg version="1.0" xmlns="http://www.w3.org/2000/svg"
 width="1050.000000pt" height="600.000000pt" viewBox="0 0 1050.000000 600.000000"
 preserveAspectRatio="xMidYMid meet">

<g transform="translate(0.000000,600.000000) scale(0.100000,-0.100000)"
fill="#000000" stroke="none">
<path d="M4292 3043 l3 -778 150 0 150 0 5 176 5 176 57 47 c31 25 61 46 65
46 5 0 80 -101 168 -225 l159 -225 174 0 c136 0 172 3 166 13 -7 10 -431 583
-455 612 -5 6 72 98 194 231 111 122 211 231 221 243 l19 21 -170 0 -170 0
-159 -172 c-88 -95 -188 -210 -223 -256 -35 -45 -65 -81 -67 -79 -2 2 1 61 6
133 5 71 10 283 10 472 l0 342 -155 0 -155 0 2 -777z"/>
<path d="M790 2990 l0 -730 150 0 150 0 0 260 0 260 67 49 c60 43 69 47 79 32
6 -9 93 -148 193 -308 l182 -293 176 0 175 0 -17 27 c-72 110 -495 784 -495
788 0 4 109 145 242 313 133 169 246 313 251 320 7 9 -26 12 -161 12 l-171 0
-193 -242 c-106 -134 -219 -280 -252 -326 -32 -45 -63 -85 -67 -88 -5 -3 -9
142 -9 325 l0 331 -150 0 -150 0 0 -730z"/>
<path d="M6931 3573 c-8 -21 -27 -73 -43 -115 l-30 -78 -84 -50 -84 -51 0 -65
0 -64 74 0 75 0 3 -337 c4 -381 7 -394 79 -477 49 -55 121 -84 228 -93 82 -6
197 8 274 33 l47 16 0 109 c0 71 -4 109 -11 109 -6 0 -48 -7 -94 -16 -99 -20
-144 -14 -188 26 l-32 28 -3 301 -3 301 156 0 155 0 0 115 0 115 -155 0 -155
0 0 115 0 115 -98 0 -98 0 -13 -37z"/>
<path d="M2659 3387 c-25 -7 -66 -25 -91 -40 -45 -26 -148 -130 -148 -149 0
-5 -5 -8 -12 -6 -6 2 -21 44 -32 94 l-21 89 -118 3 -117 3 0 -561 0 -560 155
0 155 0 0 319 c0 344 3 367 55 435 51 67 191 114 297 100 l45 -6 11 138 c7 75
9 140 6 143 -11 12 -141 10 -185 -2z"/>
<path d="M3405 3393 c-110 -13 -295 -68 -310 -93 -6 -9 80 -200 90 -200 4 0
46 14 93 31 115 41 267 51 322 21 46 -25 70 -73 70 -143 l0 -56 -157 -6 c-243
-9 -374 -48 -453 -133 -51 -55 -70 -103 -77 -189 -13 -169 50 -291 181 -352
56 -26 70 -28 176 -27 148 1 205 21 294 105 35 32 66 59 68 59 3 0 18 -34 34
-75 l29 -75 107 0 108 0 0 373 c0 391 -7 478 -41 558 -29 66 -110 139 -186
168 -93 35 -231 48 -348 34z m265 -699 c0 -91 -16 -131 -73 -179 -74 -63 -212
-71 -268 -16 -56 56 -51 154 11 212 48 46 89 57 223 58 l107 1 0 -76z"/>
<path d="M5888 3390 c-114 -18 -288 -75 -288 -95 0 -5 89 -187 95 -193 2 -2
45 11 97 29 75 26 112 33 193 36 87 4 104 1 132 -16 43 -27 66 -75 67 -141 l1
-55 -155 -7 c-171 -7 -275 -25 -354 -61 -143 -66 -206 -199 -176 -374 27 -165
132 -256 307 -269 146 -11 266 28 354 116 28 28 53 49 55 47 2 -2 17 -35 32
-73 l29 -69 106 -3 107 -3 0 398 c0 446 -5 489 -64 579 -67 101 -187 152 -371
159 -60 2 -136 0 -167 -5z m299 -698 c-8 -122 -55 -189 -151 -217 -69 -21
-114 -19 -166 8 -52 26 -73 68 -65 131 16 115 86 155 274 156 l114 0 -6 -78z"/>
<path d="M8035 3385 c-257 -46 -405 -251 -405 -560 0 -376 224 -603 575 -581
158 9 262 53 358 152 155 157 192 490 82 721 -102 216 -336 318 -610 268z
m246 -258 c89 -47 135 -209 112 -391 -23 -191 -118 -275 -275 -246 -126 24
-179 121 -179 330 0 174 42 280 125 316 52 23 166 18 217 -9z"/>
<path d="M9315 3393 c-110 -13 -295 -68 -310 -93 -6 -9 80 -200 90 -200 4 0
46 14 93 31 115 41 267 51 322 21 46 -25 70 -73 70 -143 l0 -56 -157 -6 c-243
-9 -374 -48 -453 -133 -51 -55 -70 -103 -77 -189 -13 -169 50 -291 181 -352
56 -26 70 -28 176 -27 148 1 205 21 294 105 35 32 66 59 68 59 3 0 18 -34 34
-75 l29 -75 107 0 108 0 0 373 c0 391 -7 478 -41 558 -29 66 -110 139 -186
168 -93 35 -231 48 -348 34z m265 -699 c0 -91 -16 -131 -73 -179 -74 -63 -212
-71 -268 -16 -56 56 -51 154 11 212 48 46 89 57 223 58 l107 1 0 -76z"/>
</g>
</svg>
